<?xml version="1.0" encoding="UTF-8" standalone="no"?>
<!DOCTYPE svg PUBLIC "-//W3C//DTD SVG 1.1//EN"
 "http://www.w3.org/Graphics/SVG/1.1/DTD/svg11.dtd">
<!-- Generated by graphviz version 2.38.0 (20140413.2041)
 -->
<!-- Title: G Pages: 1 -->
<svg width="296pt" height="516pt"
 viewBox="0.00 0.00 295.54 516.00" xmlns="http://www.w3.org/2000/svg" xmlns:xlink="http://www.w3.org/1999/xlink">
<g id="graph0" class="graph" transform="scale(1 1) rotate(0) translate(4 512)">
<title>G</title>
<polygon fill="white" stroke="none" points="-4,4 -4,-512 291.544,-512 291.544,4 -4,4"/>
<g id="clust1" class="cluster"><title>cluster_Global</title>
<path fill="none" stroke="gray" d="M152.135,-8C152.135,-8 267.544,-8 267.544,-8 273.544,-8 279.544,-14 279.544,-20 279.544,-20 279.544,-488 279.544,-488 279.544,-494 273.544,-500 267.544,-500 267.544,-500 152.135,-500 152.135,-500 146.135,-500 140.135,-494 140.135,-488 140.135,-488 140.135,-20 140.135,-20 140.135,-14 146.135,-8 152.135,-8"/>
<text text-anchor="middle" x="209.839" y="-487.2" font-family="Times,serif" font-size="11.00" fill="gray">Global</text>
</g>
<g id="clust2" class="cluster"><title>cluster_\IBT</title>
<path fill="none" stroke="gray" d="M160.135,-16C160.135,-16 259.544,-16 259.544,-16 265.544,-16 271.544,-22 271.544,-28 271.544,-28 271.544,-461 271.544,-461 271.544,-467 265.544,-473 259.544,-473 259.544,-473 160.135,-473 160.135,-473 154.135,-473 148.135,-467 148.135,-461 148.135,-461 148.135,-28 148.135,-28 148.135,-22 154.135,-16 160.135,-16"/>
<text text-anchor="middle" x="209.839" y="-460.2" font-family="Times,serif" font-size="11.00" fill="gray">IBT</text>
</g>
<g id="clust3" class="cluster"><title>cluster_\IBT\JsonDB</title>
<path fill="none" stroke="gray" d="M168.135,-24C168.135,-24 251.544,-24 251.544,-24 257.544,-24 263.544,-30 263.544,-36 263.544,-36 263.544,-434 263.544,-434 263.544,-440 257.544,-446 251.544,-446 251.544,-446 168.135,-446 168.135,-446 162.135,-446 156.135,-440 156.135,-434 156.135,-434 156.135,-36 156.135,-36 156.135,-30 162.135,-24 168.135,-24"/>
<text text-anchor="middle" x="209.839" y="-433.2" font-family="Times,serif" font-size="11.00" fill="gray">JsonDB</text>
</g>
<g id="clust4" class="cluster"><title>cluster_\IBT\JsonDB\Indexer</title>
<path fill="none" stroke="gray" d="M176.135,-240C176.135,-240 243.544,-240 243.544,-240 249.544,-240 255.544,-246 255.544,-252 255.544,-252 255.544,-407 255.544,-407 255.544,-413 249.544,-419 243.544,-419 243.544,-419 176.135,-419 176.135,-419 170.135,-419 164.135,-413 164.135,-407 164.135,-407 164.135,-252 164.135,-252 164.135,-246 170.135,-240 176.135,-240"/>
<text text-anchor="middle" x="209.839" y="-406.2" font-family="Times,serif" font-size="11.00" fill="gray">Indexer</text>
</g>
<!-- \\IBT\\JsonDB\\Indexer\\Scanner -->
<g id="node1" class="node"><title>\\IBT\\JsonDB\\Indexer\\Scanner</title>
<polygon fill="none" stroke="black" points="241.047,-392 178.631,-392 178.631,-356 241.047,-356 241.047,-392"/>
<text text-anchor="middle" x="209.839" y="-370.7" font-family="Courier,monospace" font-size="11.00">Scanner</text>
</g>
<!-- \\IBT\\JsonDB\\Indexer\\Index -->
<g id="node2" class="node"><title>\\IBT\\JsonDB\\Indexer\\Index</title>
<polygon fill="none" stroke="black" points="236.839,-338 182.839,-338 182.839,-302 236.839,-302 236.839,-338"/>
<text text-anchor="middle" x="209.839" y="-316.7" font-family="Courier,monospace" font-size="11.00">Index</text>
</g>
<!-- \\IBT\\JsonDB\\Indexer\\Exception -->
<g id="node3" class="node"><title>\\IBT\\JsonDB\\Indexer\\Exception</title>
<polygon fill="none" stroke="black" points="247.75,-284 171.929,-284 171.929,-248 247.75,-248 247.75,-284"/>
<text text-anchor="middle" x="209.839" y="-262.7" font-family="Courier,monospace" font-size="11.00">Exception</text>
</g>
<!-- \\Exception -->
<g id="node8" class="node"><title>\\Exception</title>
<ellipse fill="none" stroke="black" cx="48.417" cy="-185" rx="48.3341" ry="18"/>
<text text-anchor="middle" x="48.417" y="-180.8" font-family="Times,serif" font-size="14.00" fill="gray">\Exception</text>
</g>
<!-- \\IBT\\JsonDB\\Indexer\\Exception&#45;&gt;\\Exception -->
<g id="edge2" class="edge"><title>\\IBT\\JsonDB\\Indexer\\Exception&#45;&gt;\\Exception</title>
<path fill="none" stroke="black" d="M172.128,-256.232C161.576,-252.896 150.204,-248.781 140.135,-244 118.745,-233.845 96.4287,-219.389 79.2826,-207.328"/>
<polygon fill="none" stroke="black" points="80.9895,-204.246 70.8198,-201.275 76.9171,-209.939 80.9895,-204.246"/>
</g>
<!-- \\IBT\\JsonDB\\Collection -->
<g id="node4" class="node"><title>\\IBT\\JsonDB\\Collection</title>
<polygon fill="none" stroke="black" points="250.85,-230 168.829,-230 168.829,-194 250.85,-194 250.85,-230"/>
<text text-anchor="middle" x="209.839" y="-208.7" font-family="Courier,monospace" font-size="11.00">Collection</text>
</g>
<!-- \\IBT\\JsonDB\\Filter -->
<g id="node5" class="node"><title>\\IBT\\JsonDB\\Filter</title>
<polygon fill="none" stroke="black" points="237.447,-176 182.232,-176 182.232,-140 237.447,-140 237.447,-176"/>
<text text-anchor="middle" x="209.839" y="-154.7" font-family="Courier,monospace" font-size="11.00">Filter</text>
</g>
<!-- \\IBT\\JsonDB\\Exception -->
<g id="node6" class="node"><title>\\IBT\\JsonDB\\Exception</title>
<polygon fill="none" stroke="black" points="247.75,-122 171.929,-122 171.929,-86 247.75,-86 247.75,-122"/>
<text text-anchor="middle" x="209.839" y="-100.7" font-family="Courier,monospace" font-size="11.00">Exception</text>
</g>
<!-- \\IBT\\JsonDB\\Exception&#45;&gt;\\Exception -->
<g id="edge1" class="edge"><title>\\IBT\\JsonDB\\Exception&#45;&gt;\\Exception</title>
<path fill="none" stroke="black" d="M171.993,-117.21C161.545,-121.295 150.262,-126.037 140.135,-131 120.093,-140.822 98.591,-153.519 81.5534,-164.132"/>
<polygon fill="none" stroke="black" points="79.6793,-161.176 73.0821,-169.466 83.4092,-167.1 79.6793,-161.176"/>
</g>
<!-- \\IBT\\JsonDB\\Client -->
<g id="node7" class="node"><title>\\IBT\\JsonDB\\Client</title>
<polygon fill="none" stroke="black" points="237.447,-68 182.232,-68 182.232,-32 237.447,-32 237.447,-68"/>
<text text-anchor="middle" x="209.839" y="-46.7" font-family="Courier,monospace" font-size="11.00">Client</text>
</g>
</g>
</svg>
